<?xml version="1.0" standalone="no"?><!DOCTYPE svg PUBLIC "-//W3C//DTD SVG 1.1//EN" "http://www.w3.org/Graphics/SVG/1.1/DTD/svg11.dtd"><svg t="1541643408394" class="icon" style="" viewBox="0 0 1024 1024" version="1.1" xmlns="http://www.w3.org/2000/svg" p-id="1856" xmlns:xlink="http://www.w3.org/1999/xlink" width="50" height="50"><defs><style type="text/css"></style></defs><path d="M170.666667 113.777778h796.444444a56.888889 56.888889 0 0 1 56.888889 56.888889v768a85.333333 85.333333 0 0 1-85.333333 85.333333H170.666667a56.888889 56.888889 0 0 1-56.888889-56.888889V170.666667a56.888889 56.888889 0 0 1 56.888889-56.888889z m578.161777 201.016889l-216.547555 67.896889c-26.339556 7.765333-47.36 35.783111-47.36 62.464v233.528888s-15.701333-10.865778-50.631111-5.688888C382.862222 680.504889 341.333333 720.696889 341.333333 762.936889c0 42.268444 41.528889 68.181333 92.956445 60.672 51.399111-7.537778 88.888889-46.421333 88.888889-88.661333V509.44c0-18.659556 22.044444-26.680889 22.044444-26.680889l191.431111-61.44s21.304889-7.253333 21.304889 12.686222v186.112s-19.512889-11.377778-54.471111-7.253333c-51.399111 6.485333-92.928 45.880889-92.928 88.120889 0 42.268444 41.528889 68.949333 92.928 62.748444C754.915556 757.248 796.444444 717.852444 796.444444 675.555556V349.297778c-0.256-26.453333-21.532444-42.012444-47.616-34.474667z" fill="#FF4747" p-id="1857"></path><path d="M56.888889 905.386667A85.361778 85.361778 0 0 1 0 824.888889V85.333333a85.333333 85.333333 0 0 1 85.333333-85.333333h739.555556c37.148444 0 68.750222 23.751111 80.497778 56.888889H113.777778a56.888889 56.888889 0 0 0-56.888889 56.888889v791.608889z" fill="#FF4747" p-id="1858"></path></svg>